<svg viewBox="0 0 1284 2778" height="2278" width="1284">
	<rect width="1284" height="2778" fill="#3f72af" />
	<g transform="translate(270,1314.25) scale(2.3)">
		<g id="SvgjsG1007" featurekey="symbolFeature-0"
			transform="matrix(0.7363636363636364,0,0,0.7363636363636364,-4.418181818181819,-4.418181818181819)"
			fill="#ffffff">
			<g xmlns="http://www.w3.org/2000/svg" stroke="none" stroke-width="1" fill="none" fill-rule="evenodd">
				<g fill="#f9f7f7">
					<path
						d="M50,94 C74.300529,94 94,74.300529 94,50 C94,25.699471 74.300529,6 50,6 C25.699471,6 6,25.699471 6,50 C6,74.300529 25.699471,94 50,94 L50,94 L50,94 L50,94 Z M39.3076591,41.8957913 C39.697958,40.8567043 40.8534552,39.6991784 41.8957913,39.3076591 L68.2525253,29.407616 C70.3221984,28.6302112 71.3709717,29.6746523 70.592384,31.7474747 L60.6923409,58.1042087 C60.302042,59.1432957 59.1465448,60.3008216 58.1042087,60.6923409 L31.7474747,70.592384 C29.6778016,71.3697888 28.6290283,70.3253477 29.407616,68.2525253 L39.3076591,41.8957913 L39.3076591,41.8957913 Z M50,54 C52.209139,54 54,52.209139 54,50 C54,47.790861 52.209139,46 50,46 C47.790861,46 46,47.790861 46,50 C46,52.209139 47.790861,54 50,54 L50,54 L50,54 L50,54 Z">
					</path>
				</g>
			</g>
		</g>
		<g id="SvgjsG1008" featurekey="nameLeftFeature-0"
			transform="matrix(2.5714285714285716,0,0,2.5714285714285716,81.9142849785941,-0.4285714285714306)"
			fill="#eeeeee">
			<path
				d="M10.06 8.66 l-5.86 0 l0 3.06 l4.82 0 l0 2.5 l-4.82 0 l0 5.78 l-3 0 l0 -14 l8.86 0 l0 2.66 z M14.879999999999999 6 l0 14 l-2.92 0 l0 -14 l2.92 0 z M26.439999999999998 6 l2.92 0 l0 14 l-2.22 0 l-6.94 -8.68 l0 8.68 l-2.92 0 l0 -14 l2.26 0 l6.9 8.7 l0 -8.7 z M36.76 6 c3.98 0 7.1 3.12 7.1 6.92 c0 3.96 -3.12 7.08 -7.1 7.08 l-5 0 l0 -14 l5 0 z M36.739999999999995 17.240000000000002 c2.68 0 4.12 -1.94 4.12 -4.32 c0 -2.22 -1.44 -4.16 -4.12 -4.16 l-2.06 0 l0 8.48 l2.06 0 z">
			</path>
		</g>
		<g id="SvgjsG1009" featurekey="nameRightFeature-0"
			transform="matrix(2.5714285714285716,0,0,2.5714285714285716,193.97142801965987,-0.4285714285714306)"
			fill="#eeeeee">
			<path
				d="M12.62 20 l-1.78 -3.98 l-8.04 0 l-1.78 3.98 l-0.62 0 l6.26 -14 l0.3 0 l6.28 14 l-0.62 0 z M3.04 15.46 l7.56 0 l-3.78 -8.46 z M20.740000000000002 12.36 c2.14 0.42 3.18 2.14 3.18 3.74 c0 2.38 -1.6 3.9 -5.04 3.9 l-4.04 0 l0 -14 l4.4 0 c2.62 0 3.88 1.5 3.88 3.28 c0 1.18 -0.58 2.48 -2.38 3.08 z M19.240000000000002 6.5600000000000005 l-3.82 0 l0 5.52 l3.82 0 c1.92 0 3.32 -1.14 3.32 -2.78 c0 -1.68 -1.22 -2.74 -3.32 -2.74 z M18.9 19.44 c3.1 0 4.44 -1.24 4.44 -3.32 c0 -1.78 -1.34 -3.48 -4.16 -3.48 l-3.76 0 l0 6.8 l3.48 0 z M26.400000000000002 19.42 l6.94 0 l0 0.58 l-7.52 0 l0 -14 l0.58 0 l0 13.42 z M35.92 19.42 l7.28 0 l0 0.58 l-7.68 0 l-0.18 0 l0 -14 l0.58 0 l7.1 0 l0 0.58 l-7.1 0 l0 6.1 l5.66 0 l0 0.58 l-5.66 0 l0 6.16 z">
			</path>
		</g>
	</g>
</svg>