<?xml version="1.0" encoding="utf-8"?>
<!-- Generator: Adobe Illustrator 27.0.0, SVG Export Plug-In . SVG Version: 6.00 Build 0)  -->
<svg version="1.1" id="Layer_1" xmlns="http://www.w3.org/2000/svg" xmlns:xlink="http://www.w3.org/1999/xlink" x="0px" y="0px"
	 viewBox="0 0 1284 2278" style="enable-background:new 0 0 1284 2278;" xml:space="preserve">
<style type="text/css">
	.st0{fill:#3F72AF;}
	.st1{fill-rule:evenodd;clip-rule:evenodd;fill:#F9F7F7;}
	.st2{fill:#EEEEEE;}
</style>
<rect class="st0" width="1284" height="2278"/>
<g transform="translate(270,1314.25) scale(2.3)">
	<g id="SvgjsG1007" transform="matrix(0.7363636363636364,0,0,0.7363636363636364,-4.418181818181819,-4.418181818181819)">
		<g>
			<g>
				<path class="st1" d="M81.6-61.5c19.9,0,36.1-16.2,36.1-36.1s-16.2-36.1-36.1-36.1s-36.1,16.2-36.1,36.1S61.7-61.5,81.6-61.5
					L81.6-61.5L81.6-61.5L81.6-61.5z M72.8-104.2c0.3-0.9,1.3-1.8,2.1-2.1l21.6-8.1c1.7-0.6,2.6,0.2,1.9,1.9l-8.1,21.6
					c-0.3,0.9-1.3,1.8-2.1,2.1l-21.6,8.1c-1.7,0.6-2.6-0.2-1.9-1.9L72.8-104.2L72.8-104.2z M81.6-94.3c1.8,0,3.3-1.5,3.3-3.3
					c0-1.8-1.5-3.3-3.3-3.3c-1.8,0-3.3,1.5-3.3,3.3C78.3-95.8,79.8-94.3,81.6-94.3L81.6-94.3L81.6-94.3L81.6-94.3z"/>
			</g>
		</g>
	</g>
	<g id="SvgjsG1008" transform="matrix(2.5714285714285716,0,0,2.5714285714285716,81.9142849785941,-0.4285714285714306)">
		<path class="st2" d="M13.8-32.9H9v2.5h4v2.1H9v4.7H6.6V-35h7.3C13.8-35,13.8-32.9,13.8-32.9z M17.8-35v11.5h-2.4V-35H17.8z
			 M27.3-35h2.4v11.5h-1.8l-5.7-7.1v7.1h-2.4V-35h1.9l5.7,7.1V-35z M35.7-35c3.3,0,5.8,2.6,5.8,5.7c0,3.2-2.6,5.8-5.8,5.8h-4.1V-35
			H35.7z M35.7-25.8c2.2,0,3.4-1.6,3.4-3.5c0-1.8-1.2-3.4-3.4-3.4H34v7H35.7z"/>
	</g>
	<g id="SvgjsG1009" transform="matrix(2.5714285714285716,0,0,2.5714285714285716,193.97142801965987,-0.4285714285714306)">
		<path class="st2" d="M8.1-23.6l-1.5-3.3H0l-1.5,3.3h-0.5L3.2-35h0.2l5.1,11.5C8.6-23.6,8.1-23.6,8.1-23.6z M0.2-27.3h6.2l-3.1-6.9
			L0.2-27.3z M14.8-29.8c1.8,0.3,2.6,1.8,2.6,3.1c0,2-1.3,3.2-4.1,3.2H9.9V-35h3.6c2.1,0,3.2,1.2,3.2,2.7
			C16.7-31.4,16.2-30.3,14.8-29.8z M13.5-34.6h-3.1v4.5h3.1c1.6,0,2.7-0.9,2.7-2.3C16.2-33.7,15.2-34.6,13.5-34.6z M13.2-24
			c2.5,0,3.6-1,3.6-2.7c0-1.5-1.1-2.9-3.4-2.9h-3.1v5.6C10.4-24,13.2-24,13.2-24z M19.4-24h5.7v0.5h-6.2V-35h0.5V-24z M27.2-24h6
			v0.5h-6.3h-0.1V-35h0.5H33v0.5h-5.8v5h4.6v0.5h-4.6V-24z"/>
	</g>
</g>
</svg>
